<svg width="42" height="42" viewBox="0 0 42 42" fill="none" xmlns="http://www.w3.org/2000/svg">
<path d="M13.1327 37.59C7.38384 34.895 3.26999 29.33 2.63709 22.75H0C0.896609 33.53 9.95061 42 21.0088 42L22.1691 41.9475L15.4709 35.28L13.1327 37.59ZM14.6974 26.18C14.3633 26.18 14.0469 26.1275 13.7832 26.04C13.5019 25.935 13.2733 25.8125 13.08 25.62C12.8866 25.445 12.7283 25.235 12.6229 24.9725C12.5174 24.7275 12.4646 24.4475 12.4646 24.15H10.1792C10.1792 24.78 10.3022 25.34 10.5483 25.8125C10.7945 26.285 11.1285 26.6875 11.5329 27.02C11.9548 27.335 12.4295 27.58 12.9745 27.7375C13.5019 27.9125 14.0645 28 14.6622 28C15.3127 28 15.928 27.9125 16.473 27.7375C17.0356 27.5625 17.5278 27.3 17.9322 26.9675C18.3365 26.635 18.6706 26.215 18.8991 25.7075C19.1277 25.2 19.2507 24.64 19.2507 24.01C19.2507 23.6775 19.2156 23.345 19.1277 23.03C19.0398 22.715 18.9167 22.4175 18.7233 22.1375C18.5475 21.8575 18.3014 21.6125 18.0201 21.385C17.7212 21.1575 17.3696 20.9825 16.9477 20.8425C17.2993 20.685 17.5982 20.4925 17.8619 20.265C18.1256 20.0375 18.3365 19.7925 18.5124 19.53C18.6882 19.2675 18.8112 19.005 18.8991 18.725C18.987 18.445 19.0222 18.165 19.0222 17.885C19.0222 17.255 18.9167 16.695 18.7057 16.205C18.4948 15.715 18.1959 15.3125 17.8091 14.9975C17.4575 14.665 16.9828 14.42 16.4554 14.245C15.9104 14.0875 15.3127 14 14.6622 14C14.0293 14 13.4491 14.0875 12.9041 14.28C12.3767 14.4725 11.9021 14.735 11.5153 15.0675C11.1461 15.4 10.8472 15.785 10.6187 16.24C10.4077 16.695 10.3022 17.185 10.3022 17.7275H12.5877C12.5877 17.43 12.6404 17.1675 12.7459 16.94C12.8514 16.7125 12.992 16.5025 13.1854 16.345C13.3788 16.1875 13.5898 16.0475 13.8535 15.96C14.1172 15.8725 14.3809 15.82 14.6974 15.82C15.4006 15.82 15.928 15.995 16.262 16.3625C16.5961 16.7125 16.7719 17.22 16.7719 17.8675C16.7719 18.1825 16.7191 18.4625 16.6312 18.725C16.5433 18.9875 16.3851 19.1975 16.1917 19.3725C15.9983 19.5475 15.7522 19.6875 15.4709 19.7925C15.1896 19.8975 14.838 19.95 14.4512 19.95H13.0975V21.7525H14.4512C14.838 21.7525 15.1896 21.7875 15.5061 21.875C15.8225 21.9625 16.0862 22.1025 16.2972 22.2775C16.5082 22.47 16.684 22.6975 16.807 22.9775C16.9301 23.2575 16.9828 23.59 16.9828 23.975C16.9828 24.6925 16.7719 25.235 16.3675 25.6025C15.9632 26.005 15.4006 26.18 14.6974 26.18ZM29.7288 15.82C29.1662 15.2425 28.4981 14.7875 27.7246 14.4725C26.9686 14.1575 26.1072 14 25.1578 14H21.0088V28H25.0523C26.0193 28 26.9159 27.8425 27.707 27.5275C28.4981 27.2125 29.1838 26.775 29.7463 26.1975C30.3089 25.62 30.7484 24.92 31.0473 24.115C31.3462 23.2925 31.5044 22.3825 31.5044 21.3675V20.6675C31.5044 19.6525 31.3462 18.7425 31.0473 17.92C30.7309 17.0975 30.2913 16.3975 29.7288 15.82ZM29.0431 21.35C29.0431 22.085 28.9552 22.7325 28.797 23.3275C28.6212 23.905 28.3751 24.4125 28.041 24.815C27.707 25.2175 27.2851 25.5325 26.7928 25.7425C26.283 25.9525 18.7057 16.205 25.0523 26.0575H23.4525V15.96H25.1578C26.4236 15.96 27.3905 16.3625 28.041 17.1675C28.7091 17.9725 29.0431 19.1275 29.0431 20.65V21.35ZM21.0088 0L19.8485 0.0524979L26.5467 6.72L28.8849 4.3925C34.6337 7.105 38.7476 12.6525 39.3629 19.2325H42C41.121 8.46998 32.067 0 21.0088 0Z" fill="black"/>
</svg>
